<svg xmlns="http://www.w3.org/2000/svg" viewBox="0 0 1440 320" PreserveAspectRadio="none"><path fill="#ffdd00" fill-opacity="1" d="M0,192L34.3,208C68.6,224,137,256,206,266.7C274.3,277,343,267,411,234.7C480,203,549,149,617,149.3C685.7,149,754,203,823,186.7C891.4,171,960,85,1029,58.7C1097.1,32,1166,64,1234,80C1302.9,96,1371,96,1406,96L1440,96L1440,320L1405.7,320C1371.4,320,1303,320,1234,320C1165.7,320,1097,320,1029,320C960,320,891,320,823,320C754.3,320,686,320,617,320C548.6,320,480,320,411,320C342.9,320,274,320,206,320C137.1,320,69,320,34,320L0,320Z"></path></svg>