<svg xmlns="http://www.w3.org/2000/svg" viewBox="0 0 1440 320" PreserveAspectRadio="none"><path fill="#ffdd00" fill-opacity="1" d="M0,192L34.3,208C68.6,224,137,256,206,266.7C274.3,277,343,267,411,234.7C480,203,549,149,617,149.3C685.7,149,754,203,823,186.7C891.4,171,960,85,1029,58.7C1097.1,32,1166,64,1234,80C1302.9,96,1371,96,1406,96L1440,96L1440,0L1405.7,0C1371.4,0,1303,0,1234,0C1165.7,0,1097,0,1029,0C960,0,891,0,823,0C754.3,0,686,0,617,0C548.6,0,480,0,411,0C342.9,0,274,0,206,0C137.1,0,69,0,34,0L0,0Z"></path></svg>